# Rhino

mtllib swimmingpool.mtl
usemtl diffuse_0
v 0 0 22.257740020751953
v 0 8.6744565963745117 22.257740020751953
v 33.074935913085938 0 22.257740020751953
v 33.074935913085938 8.6744565963745117 22.257740020751953
v 33.074935913085938 0 22.257740020751953
v 33.074935913085938 8.6744565963745117 22.257740020751953
v 33.074935913085938 0 0
v 33.074935913085938 8.6744565963745117 0
v 33.074935913085938 0 0
v 33.074935913085938 8.6744565963745117 0
v 0 0 0
v 0 8.6744565963745117 0
v 0 0 0
v 0 8.6744565963745117 0
v 0 0 22.257740020751953
v 0 8.6744565963745117 22.257740020751953
v 0 0 22.257740020751953
v 0 0 0
v 33.074935913085938 0 22.257740020751953
v 33.074935913085938 0 0
v 0 8.6744565963745117 22.257740020751953
v 0 8.6744565963745117 0
v 33.074935913085938 8.6744565963745117 22.257740020751953
v 33.074935913085938 8.6744565963745117 0
v 32.020187377929688 8.6744565963745117 21.088556289672852
v 1.0547486543655396 8.6744565963745117 21.088556289672852
v 32.020187377929688 8.6744565963745117 1.1691834926605225
v 1.0547486543655396 8.6744565963745117 1.1691834926605225
v 1.0547486543655396 1.0780316591262817 21.088556289672852
v 1.0547486543655396 8.6744565963745117 21.088556289672852
v 32.020187377929688 1.0780316591262817 21.088556289672852
v 32.020187377929688 8.6744565963745117 21.088556289672852
v 32.020187377929688 1.0780316591262817 21.088556289672852
v 32.020187377929688 8.6744565963745117 21.088556289672852
v 32.020187377929688 1.0780316591262817 1.1691834926605225
v 32.020187377929688 8.6744565963745117 1.1691834926605225
v 32.020187377929688 1.0780316591262817 1.1691834926605225
v 32.020187377929688 8.6744565963745117 1.1691834926605225
v 1.0547486543655396 1.0780316591262817 1.1691834926605225
v 1.0547486543655396 8.6744565963745117 1.1691834926605225
v 1.0547486543655396 1.0780316591262817 1.1691834926605225
v 1.0547486543655396 8.6744565963745117 1.1691834926605225
v 1.0547486543655396 1.0780316591262817 21.088556289672852
v 1.0547486543655396 8.6744565963745117 21.088556289672852
v 1.0547486543655396 1.0780316591262817 21.088556289672852
v 1.0547486543655396 1.0780316591262817 1.1691834926605225
v 32.020187377929688 1.0780316591262817 21.088556289672852
v 32.020187377929688 1.0780316591262817 1.1691834926605225
vt 0.43952205777168274 0.31716486811637878
vt 0.43952205777168274 0.43097203969955444
vt 0.87904411554336548 0.31716486811637878
vt 0.87904411554336548 0.43097203969955444
vt 0.43763342499732971 0
vt 0.32236137986183167 0
vt 0.43763342499732971 0.29577586054801941
vt 0.32236137986183167 0.29577586054801941
vt 0.43952205777168274 0.20189283788204193
vt 0.43952205777168274 0.31570002436637878
vt 0.87904411554336548 0.20189283788204193
vt 0.87904411554336548 0.31570002436637878
vt 0.32047274708747864 0
vt 0.20520070195198059 0
vt 0.32047274708747864 0.29577586054801941
vt 0.20520070195198059 0.29577586054801941
vt 0 0.43597948551177979
vt 0 0.73175531625747681
vt 0.43805721402168274 0.43597948551177979
vt 0.43805721402168274 0.73175531625747681
vt 0.99853515625 0.43243688344955444
vt 0.7042241096496582 0.43243688344955444
vt 0.99853515625 0.87049412727355957
vt 0.7042241096496582 0.87049412727355957
vt 0.98307520151138306 0.85652458667755127
vt 0.98307520151138306 0.44640639424324036
vt 0.71968406438827515 0.85652458667755127
vt 0.71968406438827515 0.44640639424324036
vt 0.43952205777168274 0.10094641894102097
vt 0.43952205777168274 0.20042799413204193
vt 0.85101169347763062 0.10094641894102097
vt 0.85101169347763062 0.20042799413204193
vt 0.20354677736759186 0
vt 0.1026003509759903 0
vt 0.20354677736759186 0.26470205187797546
vt 0.1026003509759903 0.26470205187797546
vt 0.43952205777168274 0
vt 0.43952205777168274 0.099481575191020966
vt 0.85101169347763062 0
vt 0.85101169347763062 0.099481575191020966
vt 0.10094641894102097 0
vt 0 0
vt 0.10094641894102097 0.26470205187797546
vt 0 0.26470205187797546
vt 0.7027592658996582 0.43243688344955444
vt 0.43952205777168274 0.43243688344955444
vt 0.7027592658996582 0.84392654895782471
vt 0.43952205777168274 0.84392654895782471
vn 0 0 1
vn 0 0 1
vn 0 0 1
vn 0 0 1
vn 1 0 0
vn 1 0 0
vn 1 0 0
vn 1 0 0
vn 0 0 -1
vn 0 0 -1
vn 0 0 -1
vn 0 0 -1
vn -1 0 0
vn -1 0 0
vn -1 0 0
vn -1 0 0
vn 0 -1 0
vn 0 -1 0
vn 0 -1 0
vn 0 -1 0
vn 0 1 0
vn 0 1 0
vn 0 1 0
vn 0 1 0
vn 0 1 0
vn 0 1 0
vn 0 1 0
vn 0 1 0
vn 0 0 -1
vn 0 0 -1
vn 0 0 -1
vn 0 0 -1
vn -1 0 0
vn -1 0 0
vn -1 0 0
vn -1 0 0
vn 0 0 1
vn 0 0 1
vn 0 0 1
vn 0 0 1
vn 1 0 0
vn 1 0 0
vn 1 0 0
vn 1 0 0
vn 0 1 0
vn 0 1 0
vn 0 1 0
vn 0 1 0
f 2/2/2 1/1/1 3/3/3 4/4/4
f 6/6/6 5/5/5 7/7/7 8/8/8
f 10/10/10 9/9/9 11/11/11 12/12/12
f 14/14/14 13/13/13 15/15/15 16/16/16
f 18/18/18 20/20/20 19/19/19 17/17/17
f 26/26/26 28/28/28 22/22/22 21/21/21
f 25/25/25 26/26/26 21/21/21 23/23/23
f 24/24/24 22/22/22 28/28/28 27/27/27
f 27/27/27 25/25/25 23/23/23
f 23/23/23 24/24/24 27/27/27
f 30/30/30 32/32/32 31/31/31 29/29/29
f 34/34/34 36/36/36 35/35/35 33/33/33
f 38/38/38 40/40/40 39/39/39 37/37/37
f 42/42/42 44/44/44 43/43/43 41/41/41
f 46/46/46 45/45/45 47/47/47 48/48/48
